<svg width="135" height="135" viewBox="0 0 135 135" fill="none" xmlns="http://www.w3.org/2000/svg">
<path d="M109.397 109.396C109.397 122.261 119.808 132.672 132.672 132.672" stroke="#424A60" stroke-width="2" stroke-miterlimit="10" stroke-linecap="round"/>
<path d="M65.1725 37.2415C60.2706 37.2415 55.669 38.5123 51.6632 40.7305C53.2157 46.752 58.6669 51.207 65.1725 51.207C71.6781 51.207 77.1293 46.752 78.6818 40.7305C74.6761 38.5123 70.0744 37.2415 65.1725 37.2415Z" fill="#424A60"/>
<path d="M65.1725 93.1035C70.0744 93.1035 74.6761 91.8326 78.6818 89.6144C77.1293 83.5929 71.6781 79.1379 65.1725 79.1379C58.6669 79.1379 53.2157 83.5929 51.6632 89.6144C55.669 91.8326 60.2706 93.1035 65.1725 93.1035Z" fill="#424A60"/>
<path d="M93.1035 65.1725C93.1035 60.2706 91.8326 55.669 89.6144 51.6655C83.5929 53.2157 79.1379 58.6669 79.1379 65.1725C79.1379 71.6781 83.5929 77.1293 89.6144 78.6795C91.8326 74.6761 93.1035 70.0744 93.1035 65.1725Z" fill="#424A60"/>
<path d="M40.7305 51.6655C38.5123 55.669 37.2415 60.2706 37.2415 65.1725C37.2415 70.0744 38.5123 74.6761 40.7305 78.6795C46.752 77.1293 51.207 71.6781 51.207 65.1725C51.207 58.6669 46.752 53.2157 40.7305 51.6655Z" fill="#424A60"/>
<path d="M65.1724 0C29.1786 0 0 29.1786 0 65.1724C0 101.166 29.1786 130.345 65.1724 130.345C101.166 130.345 130.345 101.166 130.345 65.1724C130.345 29.1786 101.166 0 65.1724 0ZM65.1724 23.2759C72.886 23.2759 79.1379 29.5278 79.1379 37.2414C79.1379 44.955 72.886 51.2069 65.1724 51.2069C57.4588 51.2069 51.2069 44.955 51.2069 37.2414C51.2069 29.5278 57.4588 23.2759 65.1724 23.2759ZM37.2414 79.1379C29.5278 79.1379 23.2759 72.886 23.2759 65.1724C23.2759 57.4588 29.5278 51.2069 37.2414 51.2069C44.955 51.2069 51.2069 57.4588 51.2069 65.1724C51.2069 72.886 44.955 79.1379 37.2414 79.1379ZM65.1724 107.069C57.4588 107.069 51.2069 100.817 51.2069 93.1035C51.2069 85.3898 57.4588 79.1379 65.1724 79.1379C72.886 79.1379 79.1379 85.3898 79.1379 93.1035C79.1379 100.817 72.886 107.069 65.1724 107.069ZM93.1035 79.1379C85.3898 79.1379 79.1379 72.886 79.1379 65.1724C79.1379 57.4588 85.3898 51.2069 93.1035 51.2069C100.817 51.2069 107.069 57.4588 107.069 65.1724C107.069 72.886 100.817 79.1379 93.1035 79.1379Z" fill="#C7CAC7"/>
<path d="M65.1724 9.3103C34.3202 9.3103 9.3103 34.3202 9.3103 65.1724C9.3103 96.0245 34.3202 121.034 65.1724 121.034C96.0245 121.034 121.034 96.0245 121.034 65.1724C121.034 34.3202 96.0245 9.3103 65.1724 9.3103ZM65.1724 23.2758C72.886 23.2758 79.1379 29.5277 79.1379 37.2413C79.1379 44.955 72.886 51.2069 65.1724 51.2069C57.4588 51.2069 51.2069 44.955 51.2069 37.2413C51.2069 29.5277 57.4588 23.2758 65.1724 23.2758ZM37.2413 79.1379C29.5277 79.1379 23.2758 72.886 23.2758 65.1724C23.2758 57.4588 29.5277 51.2069 37.2413 51.2069C44.955 51.2069 51.2069 57.4588 51.2069 65.1724C51.2069 72.886 44.955 79.1379 37.2413 79.1379ZM65.1724 107.069C57.4588 107.069 51.2069 100.817 51.2069 93.1034C51.2069 85.3898 57.4588 79.1379 65.1724 79.1379C72.886 79.1379 79.1379 85.3898 79.1379 93.1034C79.1379 100.817 72.886 107.069 65.1724 107.069ZM93.1034 79.1379C85.3898 79.1379 79.1379 72.886 79.1379 65.1724C79.1379 57.4588 85.3898 51.2069 93.1034 51.2069C100.817 51.2069 107.069 57.4588 107.069 65.1724C107.069 72.886 100.817 79.1379 93.1034 79.1379Z" fill="#E7ECED"/>
</svg>
