<svg width="35" height="35" viewBox="0 0 35 35" fill="none" xmlns="http://www.w3.org/2000/svg">
<g clip-path="url(#clip0)">
<path d="M15.8284 17.3828L0.336538 32.8746C-0.0938525 33.305 -0.0938525 34.0023 0.336538 34.4327C0.55146 34.6481 0.833647 34.7553 1.11529 34.7553C1.39748 34.7553 1.67912 34.6481 1.89404 34.4327L17.5024 18.8243L33.1108 34.4327C33.3262 34.6481 33.6079 34.7553 33.8895 34.7553C34.1711 34.7553 34.4533 34.6481 34.6683 34.4327C35.0986 34.0023 35.0986 33.305 34.6683 32.8746L19.1769 17.3828L34.6786 1.87994C35.109 1.44955 35.109 0.752285 34.6786 0.321894C34.2483 -0.107949 33.551 -0.107949 33.1211 0.321894L17.5029 15.9412L1.8831 0.322441C1.45271 -0.107402 0.755991 -0.107402 0.325601 0.322441C-0.10479 0.752832 -0.10479 1.4501 0.325601 1.88049L15.8284 17.3828Z" fill="#BD104E"/>
</g>
<defs>
<clipPath id="clip0">
<rect width="35" height="35" fill="white"/>
</clipPath>
</defs>
</svg>
