<svg width="45" height="45" viewBox="0 0 45 45" fill="none" xmlns="http://www.w3.org/2000/svg">
<path d="M44.9383 17.0056C44.7905 16.5316 44.4026 16.193 43.9315 16.1156L29.8928 14.0262L23.5753 0.725494C23.3629 0.280525 22.9288 0 22.4578 0C21.9867 0 21.5526 0.280525 21.3402 0.735168L15.1059 14.0746L1.06712 16.2607C0.596087 16.3381 0.208174 16.6767 0.0603976 17.1507C-0.0873788 17.6247 0.0419256 18.147 0.383659 18.4856L10.571 28.8263L8.21581 43.4716C8.13269 43.965 8.32664 44.4583 8.71456 44.7485C8.92698 44.9129 9.18559 45 9.4442 45C9.6474 45 9.84135 44.9516 10.0261 44.8452L22.5594 37.8902L35.1296 44.7678C35.3143 44.8646 35.5083 44.9129 35.7022 44.9129C36.3857 44.9129 36.9491 44.3229 36.9491 43.6071C36.9491 43.5006 36.9399 43.4039 36.9121 43.3072L34.4831 28.7489L44.6058 18.3502C44.966 18.0019 45.086 17.4796 44.9383 17.0056ZM32.2849 27.3657C31.9893 27.6655 31.86 28.1008 31.9339 28.5264L34.049 41.2274L23.132 35.259C22.7718 35.0559 22.3377 35.0656 21.9683 35.259L11.0882 41.2951L13.1294 28.5748C13.194 28.1492 13.0647 27.7236 12.7692 27.4237L3.93953 18.4469L16.1219 16.5509C16.5282 16.4832 16.8792 16.2221 17.0547 15.8351L22.467 4.25623L27.9532 15.8061C28.1379 16.193 28.4889 16.4542 28.8953 16.5219L41.0868 18.3405L32.2849 27.3657Z" fill="white"/>
</svg>
