<svg width="45" height="45" viewBox="0 0 45 45" fill="none" xmlns="http://www.w3.org/2000/svg">
<g clip-path="url(#clip0)">
<path d="M44.9384 17.2539C44.7906 16.8014 44.4027 16.4781 43.9317 16.4042L29.8929 14.4092L23.5755 1.70967C23.363 1.28481 22.9289 1.01697 22.4579 1.01697C21.9869 1.01697 21.5528 1.28481 21.3403 1.71891L15.106 14.4554L1.06725 16.5427C0.59621 16.6166 0.208296 16.9399 0.0605198 17.3925C-0.0872568 17.845 0.0420477 18.3438 0.383781 18.667L10.5711 28.5404L8.21594 42.5237C8.13282 42.9948 8.32677 43.4658 8.71469 43.7429C8.92712 43.8999 9.18572 43.983 9.44433 43.983C9.64753 43.983 9.84148 43.9368 10.0262 43.8352L22.5595 37.1945L35.1298 43.7614C35.3145 43.8537 35.5084 43.8999 35.7024 43.8999C36.3859 43.8999 36.9492 43.3365 36.9492 42.653C36.9492 42.5514 36.94 42.4591 36.9123 42.3667L34.4832 28.4665L44.6059 18.5377C44.9661 18.2052 45.0862 17.7065 44.9384 17.2539ZM32.2851 27.1457C31.9895 27.432 31.8602 27.8477 31.9341 28.254L34.0491 40.381L23.1321 34.6823C22.7719 34.4884 22.3378 34.4976 21.9684 34.6823L11.0883 40.4456L13.1295 28.3002C13.1942 27.8938 13.0649 27.4875 12.7693 27.2011L3.93966 18.6301L16.122 16.8198C16.5284 16.7552 16.8793 16.5058 17.0548 16.1364L22.4671 5.08082L27.9534 16.1087C28.1381 16.4781 28.489 16.7275 28.8954 16.7921L41.087 18.5285L32.2851 27.1457Z" fill="#BD104E"/>
</g>
<defs>
<clipPath id="clip0">
<rect width="45" height="45" fill="white"/>
</clipPath>
</defs>
</svg>
