<svg width="50" height="50" viewBox="0 0 50 50" fill="none" xmlns="http://www.w3.org/2000/svg">
<path d="M34.8189 0H5.82672V50H44.1731V9.3542L34.8189 0ZM34.1796 3.50391L40.6693 9.99346H34.1796V3.50391ZM41.2434 47.0703H8.75641V2.92969H31.25V12.9231H41.2434V47.0703V47.0703Z" fill="#BD104E"/>
<path d="M37.8034 23.7835L29.3226 21.994L25 14.4813L20.6775 21.994L12.1967 23.7835L18.006 30.216L17.0871 38.8345L25 35.2974L32.9129 38.8345L31.9941 30.216L37.8034 23.7835ZM25 32.0884L20.5402 34.082L21.0581 29.2243L17.7838 25.5988L22.5638 24.5902L25 20.3558L27.4363 24.5902L32.2162 25.5988L28.9419 29.2243L29.4599 34.082L25 32.0884Z" fill="#BD104E"/>
</svg>
